<?xml version="1.0" encoding="iso-8859-1"?>
<!-- Generator: Adobe Illustrator 16.0.0, SVG Export Plug-In . SVG Version: 6.00 Build 0)  -->
<!DOCTYPE svg PUBLIC "-//W3C//DTD SVG 1.1//EN" "http://www.w3.org/Graphics/SVG/1.1/DTD/svg11.dtd">
<svg version="1.1" xmlns="http://www.w3.org/2000/svg" xmlns:xlink="http://www.w3.org/1999/xlink" x="0px" y="0px"
	 width="57.707px" height="51.336px" viewBox="0 0 57.707 51.336" style="enable-background:new 0 0 57.707 51.336;"
	 xml:space="preserve">
<g id="_x30_2_x5F_pork">
	<g>
		<g>
			<path style="fill:#00884b;" d="M23.316,37.254c-2.359,0-4.566-1.047-6.056-2.873c-1.317-1.615-1.927-3.647-1.716-5.722
				c0.211-2.074,1.216-3.941,2.832-5.258c1.389-1.132,3.139-1.756,4.929-1.756c2.357,0,4.563,1.047,6.051,2.872
				c2.719,3.333,2.22,8.26-1.111,10.98C26.854,36.631,25.104,37.254,23.316,37.254z M23.304,25.338c-0.956,0-1.853,0.32-2.596,0.925
				c-0.851,0.693-1.38,1.676-1.491,2.77c-0.111,1.092,0.209,2.163,0.903,3.014c0.785,0.963,1.95,1.515,3.195,1.515
				c0.955,0,1.852-0.319,2.594-0.924c1.754-1.433,2.017-4.03,0.584-5.787C25.709,25.889,24.547,25.338,23.304,25.338z"/>
		</g>
		<g>
			<path style="fill:#00884b;" d="M24.379,51.336c-0.893,0-1.783-0.049-2.67-0.148c-6.406-0.713-12.112-3.883-16.067-8.928
				c-5.697-7.265-7.185-16.059-3.979-23.525c3.016-7.023,9.619-11.512,18.114-12.317c8.054-0.762,12.407-2.663,15.904-4.189
				c4.061-1.772,7.268-3.172,13.173-1.433c2.519,0.743,5.751,3.101,6.652,4.851c0.465,0.902,0.108,2-0.791,2.471
				c-0.9,0.469-2.015,0.116-2.491-0.78c-0.344-0.646-2.652-2.48-4.414-3c-4.616-1.359-6.76-0.424-10.651,1.275
				c-3.542,1.546-8.392,3.664-17.034,4.481c-7.109,0.673-12.602,4.354-15.069,10.098c-2.665,6.206-1.36,13.603,3.491,19.79
				c3.339,4.258,8.158,6.935,13.57,7.537c6.02,0.671,12.283-1.372,17.65-5.747c7.853-6.403,15.458-18.955,14.086-29.604
				c-0.131-1.011,0.584-1.937,1.595-2.067c1.011-0.131,1.937,0.584,2.067,1.595c1.559,12.1-6.575,25.729-15.415,32.938
				C36.736,49.006,30.532,51.336,24.379,51.336z"/>
		</g>
		<g>
			<path style="fill:#00884b;" d="M28.565,28.497c-0.808,0-1.55-0.534-1.777-1.351c-0.274-0.982,0.3-2,1.282-2.274
				c7.531-2.1,14.356-9.515,14.424-9.589c0.688-0.753,1.854-0.807,2.607-0.121c0.754,0.687,0.808,1.854,0.121,2.608
				c-0.308,0.337-7.619,8.276-16.161,10.658C28.896,28.475,28.729,28.497,28.565,28.497z"/>
		</g>
	</g>
</g>
<g id="Layer_1">
</g>
</svg>
