<?xml version="1.0" encoding="iso-8859-1"?>
<!-- Generator: Adobe Illustrator 16.0.0, SVG Export Plug-In . SVG Version: 6.00 Build 0)  -->
<!DOCTYPE svg PUBLIC "-//W3C//DTD SVG 1.1//EN" "http://www.w3.org/Graphics/SVG/1.1/DTD/svg11.dtd">
<svg version="1.1" xmlns="http://www.w3.org/2000/svg" xmlns:xlink="http://www.w3.org/1999/xlink" x="0px" y="0px"
	 width="57.695px" height="56.796px" viewBox="0 0 57.695 56.796" style="enable-background:new 0 0 57.695 56.796;"
	 xml:space="preserve">
<g id="_x31_7_x5F_chicken_x5F_leg">
	<g>
		<g>
			<path style="fill:#44444D;" d="M29.409,15.87c-0.308,0-0.619-0.077-0.906-0.239c-0.888-0.501-1.201-1.627-0.699-2.515
				c2.05-3.63,5.279-6.118,8.86-6.827c3.212-0.639,6.52,0.222,9.313,2.417c0.802,0.629,0.941,1.79,0.312,2.592
				c-0.63,0.803-1.79,0.942-2.592,0.312c-1.961-1.54-4.144-2.128-6.314-1.698c-2.524,0.5-4.844,2.33-6.363,5.021
				C30.679,15.532,30.054,15.87,29.409,15.87z"/>
		</g>
		<g>
			<path style="fill:#44444D;" d="M9.297,56.796c-0.086,0-0.174-0.001-0.261-0.005c-3.037-0.126-4.358-2.838-4.787-5.083
				c-2.143-0.8-4.597-2.56-4.208-5.578c0.188-1.478,0.89-2.704,2.031-3.54c1.799-1.318,4.239-1.338,5.548-1.232l5.354-4.354
				c-0.508-8.758,2.351-14.932,6.407-22.6c4.02-7.603,9.243-12.416,15.104-13.918c4.555-1.169,9.339-0.222,13.828,2.737
				c5.759,3.796,9.175,9.537,9.371,15.751c0.212,6.698-3.229,13.068-9.688,17.939c-8.547,6.443-18.994,9.679-27.258,8.439
				c-0.04-0.006-0.079-0.013-0.118-0.02l-5.604,4.807c-0.115,1.311-0.549,3.699-2.146,5.244
				C11.915,56.312,10.684,56.796,9.297,56.796z M6.639,45.012c-0.813,0-1.791,0.117-2.388,0.559
				c-0.214,0.158-0.471,0.418-0.548,1.027c-0.134,1.044,2.189,1.791,2.622,1.885c0.818,0.178,1.414,0.885,1.452,1.721
				c0.024,0.463,0.371,2.855,1.414,2.898c0.62,0.029,0.922-0.184,1.114-0.37c0.82-0.794,1.07-2.672,1.063-3.458
				c-0.006-0.545,0.23-1.064,0.645-1.419l4.77-4.091c-0.571-0.583-0.705-1.498-0.27-2.233c0.519-0.876,1.65-1.169,2.529-0.647
				c0.23,0.134,0.858,0.451,1.549,0.658c0.035,0.01,0.07,0.02,0.105,0.031c0.195,0.055,0.395,0.1,0.589,0.129
				c7.21,1.083,16.825-1.955,24.49-7.736c5.474-4.127,8.393-9.409,8.22-14.873c-0.158-4.999-2.97-9.659-7.713-12.785
				c-3.647-2.404-7.308-3.158-10.88-2.244c-4.825,1.236-9.236,5.409-12.757,12.067c-4.034,7.625-6.625,13.243-5.922,21.543
				c0.052,0.609-0.2,1.203-0.675,1.588l-6.708,5.455c-0.418,0.34-0.963,0.481-1.493,0.385C7.606,45.06,7.156,45.012,6.639,45.012z"
				/>
		</g>
		<g>
			<path style="fill:#44444D;" d="M26.041,21.725c-0.288,0-0.581-0.068-0.854-0.211c-0.903-0.473-1.252-1.588-0.779-2.492
				l0.579-1.105c0.473-0.903,1.588-1.253,2.491-0.779c0.903,0.473,1.252,1.588,0.779,2.492l-0.579,1.105
				C27.349,21.365,26.706,21.725,26.041,21.725z"/>
		</g>
	</g>
</g>
<g id="Layer_1">
</g>
</svg>
