<?xml version="1.0" encoding="iso-8859-1"?>
<!-- Generator: Adobe Illustrator 16.0.0, SVG Export Plug-In . SVG Version: 6.00 Build 0)  -->
<!DOCTYPE svg PUBLIC "-//W3C//DTD SVG 1.1//EN" "http://www.w3.org/Graphics/SVG/1.1/DTD/svg11.dtd">
<svg version="1.1" xmlns="http://www.w3.org/2000/svg" xmlns:xlink="http://www.w3.org/1999/xlink" x="0px" y="0px"
	 width="57.691px" height="48.464px" viewBox="0 0 57.691 48.464" style="enable-background:new 0 0 57.691 48.464;"
	 xml:space="preserve">
<g id="_x33_2_x5F_delivery">
	<g>
		<g>
			<path style="fill:#00884b;" d="M55.846,42.194h-5.604c-1.02,0-1.846-0.826-1.846-1.846s0.826-1.846,1.846-1.846h5.604
				c1.02,0,1.846,0.826,1.846,1.846S56.865,42.194,55.846,42.194z"/>
		</g>
		<g>
			<path style="fill:#00884b;" d="M44.036,48.464c-4.476,0-8.116-3.641-8.116-8.115c0-4.476,3.641-8.117,8.116-8.117
				s8.116,3.642,8.116,8.117C52.152,44.823,48.512,48.464,44.036,48.464z M44.036,35.923c-2.439,0-4.425,1.985-4.425,4.426
				c0,2.439,1.985,4.424,4.425,4.424s4.425-1.984,4.425-4.424C48.461,37.908,46.476,35.923,44.036,35.923z"/>
		</g>
		<g>
			<path style="fill:#00884b;" d="M12.859,48.464c-4.476,0-8.117-3.641-8.117-8.115c0-4.476,3.642-8.117,8.117-8.117
				s8.116,3.642,8.116,8.117C20.976,44.823,17.335,48.464,12.859,48.464z M12.859,35.923c-2.44,0-4.426,1.985-4.426,4.426
				c0,2.439,1.985,4.424,4.426,4.424c2.439,0,4.425-1.984,4.425-4.424C17.284,37.908,15.299,35.923,12.859,35.923z"/>
		</g>
		<g>
			<path style="fill:#00884b;" d="M37.766,42.194H19.13c-1.02,0-1.846-0.826-1.846-1.846s0.826-1.846,1.846-1.846h18.636
				c1.02,0,1.846,0.826,1.846,1.846S38.785,42.194,37.766,42.194z"/>
		</g>
		<g>
			<path style="fill:#00884b;" d="M6.588,42.194H1.846C0.826,42.194,0,41.368,0,40.349s0.826-1.846,1.846-1.846h4.742
				c1.02,0,1.846,0.826,1.846,1.846S7.607,42.194,6.588,42.194z"/>
		</g>
		<g>
			<path style="fill:#00884b;" d="M49.797,26.099H33.389c-1.02,0-1.846-0.826-1.846-1.846V6.897c0-1.02,0.826-1.846,1.846-1.846
				s1.846,0.826,1.846,1.846v15.51h14.563c1.02,0,1.846,0.826,1.846,1.846S50.816,26.099,49.797,26.099z"/>
		</g>
		<path style="fill:#00884b;" d="M54.037,17.602C52.313,15.386,43.669,4.284,42.751,3.366C40.227,0.84,38.535,0,33.499,0H7.642
			C3.223,0,0.016,3.078,0.016,7.319C0.016,9.614,0,35.304,0,35.304c0,1.02,0.826,1.846,1.846,1.846s1.845-0.825,1.846-1.845
			c0,0,0.016-25.69,0.016-27.985c0-2.17,1.581-3.628,3.935-3.628h25.857c4.159,0,4.906,0.549,6.636,2.279
			c0.685,0.713,7.104,8.903,11.027,13.946C51.19,19.951,54,23.391,54,27.425v7.879c0,1.02,0.826,1.846,1.846,1.846
			s1.846-0.826,1.846-1.846v-7.879C57.691,22.023,54.146,17.729,54.037,17.602z"/>
	</g>
</g>
<g id="Layer_1">
</g>
</svg>
