<?xml version="1.0" encoding="iso-8859-1"?>
<!-- Generator: Adobe Illustrator 16.0.0, SVG Export Plug-In . SVG Version: 6.00 Build 0)  -->
<!DOCTYPE svg PUBLIC "-//W3C//DTD SVG 1.1//EN" "http://www.w3.org/Graphics/SVG/1.1/DTD/svg11.dtd">
<svg version="1.1" xmlns="http://www.w3.org/2000/svg" xmlns:xlink="http://www.w3.org/1999/xlink" x="0px" y="0px"
	 width="39.392px" height="57.692px" viewBox="0 0 39.392 57.692" style="enable-background:new 0 0 39.392 57.692;"
	 xml:space="preserve">
<g id="_x34_9_x5F_bbq">
	<g>
		<g>
			<path style="fill:#44444D;" d="M19.695,51.154C8.835,51.154,0,42.981,0,32.936c0-1.02,0.827-1.846,1.846-1.846
				s1.846,0.826,1.846,1.846c0,8.01,7.179,14.527,16.002,14.527c8.825,0,16.004-6.518,16.004-14.527c0-1.02,0.826-1.846,1.846-1.846
				s1.847,0.826,1.847,1.846C39.392,42.981,30.556,51.154,19.695,51.154z"/>
		</g>
		<g>
			<path style="fill:#44444D;" d="M19.695,35.496C8.651,35.496,0,30.825,0,24.861c0-5.968,8.651-10.643,19.695-10.643
				c11.045,0,19.697,4.675,19.697,10.643C39.392,30.825,30.74,35.496,19.695,35.496z M19.695,17.91
				c-9.431,0-16.002,3.663-16.002,6.951c0,3.284,6.572,6.943,16.002,6.943c9.432,0,16.004-3.659,16.004-6.943
				C35.699,21.573,29.127,17.91,19.695,17.91z"/>
		</g>
		<g>
			<path style="fill:#44444D;" d="M4.555,30.817c-0.582,0-1.154-0.274-1.514-0.788c-0.585-0.835-0.382-1.986,0.453-2.57
				l11.337-7.939c0.835-0.587,1.986-0.383,2.571,0.453c0.585,0.835,0.382,1.986-0.453,2.57L5.612,30.482
				C5.29,30.709,4.92,30.817,4.555,30.817z"/>
		</g>
		<g>
			<path style="fill:#44444D;" d="M9.205,33.817c-0.587,0-1.164-0.28-1.522-0.8c-0.578-0.84-0.365-1.989,0.475-2.567L23.866,19.64
				c0.839-0.58,1.989-0.365,2.567,0.474c0.578,0.84,0.365,1.989-0.475,2.567L10.25,33.491C9.931,33.712,9.566,33.817,9.205,33.817z"
				/>
		</g>
		<g>
			<path style="fill:#44444D;" d="M17.456,35.427c-0.581,0-1.152-0.273-1.512-0.785c-0.586-0.834-0.385-1.985,0.449-2.572
				l14.177-9.963c0.834-0.586,1.985-0.387,2.572,0.449c0.586,0.834,0.385,1.985-0.449,2.572l-14.177,9.963
				C18.193,35.317,17.823,35.427,17.456,35.427z"/>
		</g>
		<g>
			<path style="fill:#44444D;" d="M3.726,57.692c-0.364,0-0.731-0.107-1.053-0.331c-0.837-0.582-1.043-1.733-0.461-2.57l3.218-4.625
				c0.583-0.838,1.734-1.043,2.57-0.461c0.837,0.582,1.043,1.733,0.461,2.57L5.243,56.9C4.884,57.416,4.309,57.692,3.726,57.692z"/>
		</g>
		<g>
			<path style="fill:#44444D;" d="M35.664,57.692c-0.584,0-1.158-0.276-1.518-0.792l-3.217-4.625
				c-0.582-0.837-0.376-1.988,0.461-2.57c0.836-0.582,1.988-0.377,2.57,0.461l3.217,4.625c0.582,0.837,0.376,1.988-0.461,2.57
				C36.396,57.585,36.027,57.692,35.664,57.692z"/>
		</g>
		<g>
			<g>
				<path style="fill:#44444D;" d="M12.669,13.098c-0.514,0-1.026-0.213-1.391-0.631c-2-2.288-2.856-4.711-2.473-7.007
					c0.245-1.469,1.137-3.566,4-5.214c0.884-0.509,2.013-0.205,2.521,0.679s0.205,2.013-0.679,2.521
					c-1.294,0.745-2.035,1.627-2.201,2.621c-0.192,1.153,0.38,2.563,1.611,3.971c0.671,0.768,0.593,1.934-0.175,2.604
					C13.533,12.948,13.101,13.098,12.669,13.098z"/>
			</g>
			<g>
				<path style="fill:#44444D;" d="M20.222,13.098c-0.514,0-1.025-0.213-1.391-0.631c-2.001-2.288-2.857-4.712-2.475-7.008
					c0.245-1.469,1.137-3.565,4-5.213c0.884-0.509,2.013-0.205,2.521,0.679s0.205,2.013-0.68,2.521
					c-1.293,0.745-2.033,1.627-2.199,2.62c-0.192,1.152,0.381,2.563,1.613,3.972c0.671,0.767,0.593,1.934-0.175,2.604
					C21.086,12.948,20.653,13.098,20.222,13.098z"/>
			</g>
			<g>
				<path style="fill:#44444D;" d="M27.771,13.098c-0.515,0-1.025-0.213-1.391-0.63c-2.002-2.287-2.857-4.71-2.477-7.006
					c0.244-1.47,1.137-3.567,4-5.216c0.886-0.509,2.013-0.205,2.521,0.679c0.508,0.883,0.205,2.012-0.679,2.521
					c-1.294,0.745-2.034,1.628-2.2,2.622c-0.191,1.152,0.381,2.562,1.612,3.969c0.671,0.768,0.594,1.934-0.173,2.605
					C28.636,12.947,28.202,13.098,27.771,13.098z"/>
			</g>
		</g>
	</g>
</g>
<g id="Layer_1">
</g>
</svg>
